<svg xmlns="http://www.w3.org/2000/svg" aria-hidden="true" viewBox="0 0 171 47" class="h-10 w-auto"><g fill="blue" fill-rule="evenodd"><path d="M99.57 25.047c-.97 0-4.416-.145-6.697-2.369-1.261-1.208-1.94-2.9-1.94-4.833v-6.573h3.59v6.573c0 .967.291 1.692.874 2.272 1.213 1.16 3.59 1.353 4.27 1.353h15.042v3.577H99.57zm-69.728 0c-1.31 0-4.222-.242-6.26-2.127-1.358-1.257-2.086-2.997-2.086-5.075v-6.573h3.59v6.573c0 1.063.292 1.885.922 2.417 1.214 1.111 3.446 1.208 4.173 1.16h15.14v3.576H30.376c-.098.049-.292.049-.534.049zm-14.8-15.66V22.34s.097 1.643-.825 2.658c-.582.629-1.455.919-2.668.919H7.473s-1.65.096-2.67-.822c-.63-.58-.921-1.45-.921-2.658l.048-6.235H.291v6.235c0 2.271.68 4.06 2.087 5.316 2.038 1.837 4.706 1.789 5.289 1.789H11.5c2.28 0 4.076-.677 5.338-2.079 1.843-2.03 1.795-4.688 1.795-5.268V9.387h-3.59zm66.574 6.718h-17.08s.048 3.432.048 5.365h-.048v.822c0 .966-.291 1.691-.874 2.271-1.213 1.16-3.59 1.354-4.27 1.354h-.678c-1.165-.049-2.767-.242-3.349-.822-.63-.58-.922-1.45-.922-2.658v-6.332h-3.59v6.332c0 2.271.679 4.06 2.086 5.316 2.038 1.837 4.707 1.789 5.289 1.789h1.795v-.049c1.359-.048 4.222-.435 6.163-2.32 1.261-1.208 1.94-2.9 1.94-4.833v-.822h.05c0-.966-.05-1.836-.05-1.836h13.442v-3.577h.048z"></path><path d="M75.55 25.917h5.484c1.213 0 2.135-.29 2.669-.919.921-1.015.824-2.61.824-2.658v-6.235h3.591v6.042c.049.58.097 3.286-1.795 5.268-1.262 1.353-3.057 2.078-5.338 2.078h-5.434v-3.576zm-37.314 2.61h7.133v3.577h-7.133zm69.631 0h6.89v3.48h-6.89zm-66.04 5.461h3.494v3.577h-3.494zm69.534.097h3.397v3.48h-3.397z"></path><path d="M147.5 0C134.52 0 124 10.52 124 23.5S134.52 47 147.5 47 171 36.48 171 23.5 160.48 0 147.5 0zm-11.847 19.77v10.044c0 .179 0 .358-.058.595h-3.11V19.411c.057-.18.057-.3.12-.48.48-2.273 1.735-3.886 4.066-4.545.358-.058.659-.18 1.017-.238h14.832c.358.059.775.18 1.197.3 2.33.718 3.827 2.632 3.949 5.026.058 1.317.179 2.689-.18 4.065-.596 2.33-2.393 3.886-4.787 4.007-1.497.058-3.053.058-4.603.058h-4.855c-.359 0-.48-.058-.48-.48v-2.006c0-.28.228-.508.509-.508h8.232c.238 0 .538 0 .839-.059 1.497-.237 2.15-.959 2.33-2.63.058-.776.058-1.614-.058-2.452-.18-1.376-1.018-2.152-2.394-2.215-.896-.058-1.855-.058-2.752-.058H138.76c-.3 0-.659 0-.96.058-1.308.243-2.088 1.139-2.146 2.515zm26.863 7.82c-.058.179-.058.3-.121.48-.48 2.272-1.735 3.885-4.066 4.544-.358.058-.659.18-1.017.238H142.48c-.358-.059-.775-.18-1.197-.3-2.33-.718-3.827-2.632-3.949-5.026-.058-1.317-.179-2.689.18-4.065.596-2.33 2.393-3.886 4.787-4.007 1.497-.058 3.053-.058 4.603-.058h4.855c.359 0 .48.058.48.48v2.006a.509.509 0 0 1-.509.508h-8.232c-.238 0-.538 0-.839.059-1.497.237-2.15.959-2.33 2.63-.058.776-.058 1.614.058 2.452.18 1.376 1.018 2.152 2.394 2.215.896.058 1.855.058 2.752.058h10.708c.3 0 .659 0 .96-.058 1.317-.238 2.093-1.139 2.15-2.51V17.191c0-.179 0-.358.059-.596h3.11V27.59h-.004z" fill-rule="nonzero"></path></g></svg>